<mxfile host="app.diagrams.net" agent="Mozilla/5.0 (Windows NT 10.0; Win64; x64) AppleWebKit/537.36 (KHTML, like Gecko) Chrome/134.0.0.0 Safari/537.36 OPR/119.0.0.0" version="27.1.5">
  <diagram name="Page-1" id="bd83a815-5ea8-2e97-e5ec-87c9f400f2fa">
    <mxGraphModel dx="3135.5" dy="790" grid="1" gridSize="10" guides="1" tooltips="1" connect="1" arrows="1" fold="1" page="1" pageScale="1.5" pageWidth="1169" pageHeight="826" background="none" math="0" shadow="0">
      <root>
        <mxCell id="0" style=";html=1;" />
        <mxCell id="1" style=";html=1;" parent="0" />
        <mxCell id="nWOzh6Ls6pgs4mGl9cNB-15" value="" style="rounded=0;whiteSpace=wrap;html=1;" vertex="1" parent="1">
          <mxGeometry x="1670" y="220" width="100" height="420" as="geometry" />
        </mxCell>
        <mxCell id="nWOzh6Ls6pgs4mGl9cNB-13" value="" style="rounded=0;whiteSpace=wrap;html=1;" vertex="1" parent="1">
          <mxGeometry x="1570" y="220" width="100" height="420" as="geometry" />
        </mxCell>
        <mxCell id="iHMuQG1dZHNGiIYbz37S-1" value="" style="rounded=0;whiteSpace=wrap;html=1;" parent="1" vertex="1">
          <mxGeometry x="990" y="220" width="100" height="420" as="geometry" />
        </mxCell>
        <mxCell id="1516e18e63f93b96-3" value="Economics" style="text;strokeColor=none;fillColor=none;html=1;fontSize=24;fontStyle=1;verticalAlign=middle;align=center;rounded=0;shadow=1;" parent="1" vertex="1">
          <mxGeometry x="-180" y="180" width="780" height="40" as="geometry" />
        </mxCell>
        <mxCell id="XJ4MXIWNUVhlBydrAuq2-1" value="" style="rounded=0;whiteSpace=wrap;html=1;" parent="1" vertex="1">
          <mxGeometry x="10" y="220" width="400" height="420" as="geometry" />
        </mxCell>
        <mxCell id="XJ4MXIWNUVhlBydrAuq2-4" value="" style="rounded=0;whiteSpace=wrap;html=1;" parent="1" vertex="1">
          <mxGeometry x="10" y="220" width="100" height="420" as="geometry" />
        </mxCell>
        <mxCell id="XJ4MXIWNUVhlBydrAuq2-5" value="" style="rounded=0;whiteSpace=wrap;html=1;" parent="1" vertex="1">
          <mxGeometry x="110" y="220" width="100" height="420" as="geometry" />
        </mxCell>
        <mxCell id="XJ4MXIWNUVhlBydrAuq2-6" value="" style="rounded=0;whiteSpace=wrap;html=1;" parent="1" vertex="1">
          <mxGeometry x="210" y="220" width="100" height="420" as="geometry" />
        </mxCell>
        <mxCell id="XJ4MXIWNUVhlBydrAuq2-10" value="economics_id" style="text;html=1;align=center;verticalAlign=middle;whiteSpace=wrap;rounded=0;" parent="1" vertex="1">
          <mxGeometry x="10" y="220" width="100" height="70" as="geometry" />
        </mxCell>
        <mxCell id="XJ4MXIWNUVhlBydrAuq2-21" value="" style="rounded=0;whiteSpace=wrap;html=1;" parent="1" vertex="1">
          <mxGeometry x="790" y="220" width="100" height="420" as="geometry" />
        </mxCell>
        <mxCell id="XJ4MXIWNUVhlBydrAuq2-19" value="" style="endArrow=none;html=1;rounded=0;entryX=1;entryY=1;entryDx=0;entryDy=0;exitX=0;exitY=0.162;exitDx=0;exitDy=0;exitPerimeter=0;" parent="1" source="XJ4MXIWNUVhlBydrAuq2-4" target="nWOzh6Ls6pgs4mGl9cNB-20" edge="1">
          <mxGeometry width="50" height="50" relative="1" as="geometry">
            <mxPoint x="10" y="288" as="sourcePoint" />
            <mxPoint x="710" y="290" as="targetPoint" />
          </mxGeometry>
        </mxCell>
        <mxCell id="XJ4MXIWNUVhlBydrAuq2-25" value="" style="rounded=0;whiteSpace=wrap;html=1;" parent="1" vertex="1">
          <mxGeometry x="890" y="220" width="100" height="420" as="geometry" />
        </mxCell>
        <mxCell id="XJ4MXIWNUVhlBydrAuq2-28" value="Tweets" style="text;strokeColor=none;fillColor=none;html=1;fontSize=24;fontStyle=1;verticalAlign=middle;align=center;rounded=0;shadow=1;" parent="1" vertex="1">
          <mxGeometry x="790" y="180" width="400" height="40" as="geometry" />
        </mxCell>
        <mxCell id="XJ4MXIWNUVhlBydrAuq2-29" value="tweet_id" style="text;html=1;align=center;verticalAlign=middle;whiteSpace=wrap;rounded=0;" parent="1" vertex="1">
          <mxGeometry x="790" y="220" width="100" height="70" as="geometry" />
        </mxCell>
        <mxCell id="XJ4MXIWNUVhlBydrAuq2-30" value="image" style="text;html=1;align=center;verticalAlign=middle;whiteSpace=wrap;rounded=0;" parent="1" vertex="1">
          <mxGeometry x="890" y="220" width="100" height="70" as="geometry" />
        </mxCell>
        <mxCell id="XJ4MXIWNUVhlBydrAuq2-32" value="content" style="text;html=1;align=center;verticalAlign=middle;whiteSpace=wrap;rounded=0;" parent="1" vertex="1">
          <mxGeometry x="990" y="220" width="100" height="70" as="geometry" />
        </mxCell>
        <mxCell id="XJ4MXIWNUVhlBydrAuq2-34" value="" style="rounded=0;whiteSpace=wrap;html=1;" parent="1" vertex="1">
          <mxGeometry x="1090" y="220" width="100" height="420" as="geometry" />
        </mxCell>
        <mxCell id="XJ4MXIWNUVhlBydrAuq2-36" value="" style="rounded=0;whiteSpace=wrap;html=1;" parent="1" vertex="1">
          <mxGeometry x="1270" y="220" width="100" height="420" as="geometry" />
        </mxCell>
        <mxCell id="XJ4MXIWNUVhlBydrAuq2-37" value="" style="rounded=0;whiteSpace=wrap;html=1;" parent="1" vertex="1">
          <mxGeometry x="1470" y="220" width="100" height="420" as="geometry" />
        </mxCell>
        <mxCell id="XJ4MXIWNUVhlBydrAuq2-38" value="" style="rounded=0;whiteSpace=wrap;html=1;" parent="1" vertex="1">
          <mxGeometry x="1370" y="220" width="100" height="420" as="geometry" />
        </mxCell>
        <mxCell id="XJ4MXIWNUVhlBydrAuq2-39" value="Bills" style="text;strokeColor=none;fillColor=none;html=1;fontSize=24;fontStyle=1;verticalAlign=middle;align=center;rounded=0;shadow=1;" parent="1" vertex="1">
          <mxGeometry x="1320" y="180" width="400" height="40" as="geometry" />
        </mxCell>
        <mxCell id="XJ4MXIWNUVhlBydrAuq2-40" value="bill_id" style="text;html=1;align=center;verticalAlign=middle;whiteSpace=wrap;rounded=0;" parent="1" vertex="1">
          <mxGeometry x="1270" y="220" width="100" height="70" as="geometry" />
        </mxCell>
        <mxCell id="XJ4MXIWNUVhlBydrAuq2-41" value="bill_name" style="text;html=1;align=center;verticalAlign=middle;whiteSpace=wrap;rounded=0;" parent="1" vertex="1">
          <mxGeometry x="1370" y="220" width="100" height="70" as="geometry" />
        </mxCell>
        <mxCell id="XJ4MXIWNUVhlBydrAuq2-42" value="bill_content" style="text;html=1;align=center;verticalAlign=middle;whiteSpace=wrap;rounded=0;" parent="1" vertex="1">
          <mxGeometry x="1470" y="220" width="100" height="70" as="geometry" />
        </mxCell>
        <mxCell id="XJ4MXIWNUVhlBydrAuq2-45" value="" style="endArrow=none;html=1;rounded=0;entryX=1.015;entryY=0.171;entryDx=0;entryDy=0;entryPerimeter=0;" parent="1" target="nWOzh6Ls6pgs4mGl9cNB-15" edge="1">
          <mxGeometry width="50" height="50" relative="1" as="geometry">
            <mxPoint x="1270" y="291" as="sourcePoint" />
            <mxPoint x="1570" y="290" as="targetPoint" />
            <Array as="points" />
          </mxGeometry>
        </mxCell>
        <mxCell id="XJ4MXIWNUVhlBydrAuq2-26" value="" style="endArrow=none;html=1;rounded=0;entryX=0.995;entryY=0.167;entryDx=0;entryDy=0;entryPerimeter=0;" parent="1" target="XJ4MXIWNUVhlBydrAuq2-34" edge="1">
          <mxGeometry width="50" height="50" relative="1" as="geometry">
            <mxPoint x="790" y="291" as="sourcePoint" />
            <mxPoint x="840" y="270" as="targetPoint" />
            <Array as="points" />
          </mxGeometry>
        </mxCell>
        <mxCell id="iHMuQG1dZHNGiIYbz37S-2" value="date" style="text;html=1;align=center;verticalAlign=middle;whiteSpace=wrap;rounded=0;" parent="1" vertex="1">
          <mxGeometry x="1090" y="220" width="100" height="70" as="geometry" />
        </mxCell>
        <mxCell id="nWOzh6Ls6pgs4mGl9cNB-3" value="" style="rounded=0;whiteSpace=wrap;html=1;" vertex="1" parent="1">
          <mxGeometry x="-310" y="220" width="100" height="420" as="geometry" />
        </mxCell>
        <mxCell id="nWOzh6Ls6pgs4mGl9cNB-4" value="" style="rounded=0;whiteSpace=wrap;html=1;" vertex="1" parent="1">
          <mxGeometry x="-510" y="220" width="100" height="420" as="geometry" />
        </mxCell>
        <mxCell id="nWOzh6Ls6pgs4mGl9cNB-5" value="" style="rounded=0;whiteSpace=wrap;html=1;" vertex="1" parent="1">
          <mxGeometry x="-410" y="220" width="100" height="420" as="geometry" />
        </mxCell>
        <mxCell id="nWOzh6Ls6pgs4mGl9cNB-6" value="Meetings" style="text;strokeColor=none;fillColor=none;html=1;fontSize=24;fontStyle=1;verticalAlign=middle;align=center;rounded=0;shadow=1;" vertex="1" parent="1">
          <mxGeometry x="-510" y="180" width="400" height="40" as="geometry" />
        </mxCell>
        <mxCell id="nWOzh6Ls6pgs4mGl9cNB-7" value="meeting_id" style="text;html=1;align=center;verticalAlign=middle;whiteSpace=wrap;rounded=0;" vertex="1" parent="1">
          <mxGeometry x="-510" y="220" width="100" height="70" as="geometry" />
        </mxCell>
        <mxCell id="nWOzh6Ls6pgs4mGl9cNB-8" value="title" style="text;html=1;align=center;verticalAlign=middle;whiteSpace=wrap;rounded=0;" vertex="1" parent="1">
          <mxGeometry x="-410" y="220" width="100" height="70" as="geometry" />
        </mxCell>
        <mxCell id="nWOzh6Ls6pgs4mGl9cNB-9" value="video" style="text;html=1;align=center;verticalAlign=middle;whiteSpace=wrap;rounded=0;" vertex="1" parent="1">
          <mxGeometry x="-310" y="220" width="100" height="70" as="geometry" />
        </mxCell>
        <mxCell id="nWOzh6Ls6pgs4mGl9cNB-10" value="" style="rounded=0;whiteSpace=wrap;html=1;" vertex="1" parent="1">
          <mxGeometry x="-210" y="220" width="100" height="420" as="geometry" />
        </mxCell>
        <mxCell id="nWOzh6Ls6pgs4mGl9cNB-11" value="" style="endArrow=none;html=1;rounded=0;entryX=0.995;entryY=0.167;entryDx=0;entryDy=0;entryPerimeter=0;" edge="1" parent="1" target="nWOzh6Ls6pgs4mGl9cNB-10">
          <mxGeometry width="50" height="50" relative="1" as="geometry">
            <mxPoint x="-510" y="291" as="sourcePoint" />
            <mxPoint x="-460" y="270" as="targetPoint" />
            <Array as="points" />
          </mxGeometry>
        </mxCell>
        <mxCell id="nWOzh6Ls6pgs4mGl9cNB-12" value="date" style="text;html=1;align=center;verticalAlign=middle;whiteSpace=wrap;rounded=0;" vertex="1" parent="1">
          <mxGeometry x="-210" y="220" width="100" height="70" as="geometry" />
        </mxCell>
        <mxCell id="nWOzh6Ls6pgs4mGl9cNB-14" value="bill_url" style="text;html=1;align=center;verticalAlign=middle;whiteSpace=wrap;rounded=0;" vertex="1" parent="1">
          <mxGeometry x="1570" y="220" width="100" height="70" as="geometry" />
        </mxCell>
        <mxCell id="nWOzh6Ls6pgs4mGl9cNB-17" value="bill_date" style="text;html=1;align=center;verticalAlign=middle;whiteSpace=wrap;rounded=0;" vertex="1" parent="1">
          <mxGeometry x="1670" y="220" width="100" height="70" as="geometry" />
        </mxCell>
        <mxCell id="nWOzh6Ls6pgs4mGl9cNB-18" value="content" style="text;html=1;align=center;verticalAlign=middle;whiteSpace=wrap;rounded=0;" vertex="1" parent="1">
          <mxGeometry x="210" y="220" width="100" height="70" as="geometry" />
        </mxCell>
        <mxCell id="nWOzh6Ls6pgs4mGl9cNB-19" value="title" style="text;html=1;align=center;verticalAlign=middle;whiteSpace=wrap;rounded=0;" vertex="1" parent="1">
          <mxGeometry x="110" y="220" width="100" height="70" as="geometry" />
        </mxCell>
        <mxCell id="nWOzh6Ls6pgs4mGl9cNB-20" value="date" style="text;html=1;align=center;verticalAlign=middle;whiteSpace=wrap;rounded=0;" vertex="1" parent="1">
          <mxGeometry x="310" y="220" width="100" height="70" as="geometry" />
        </mxCell>
      </root>
    </mxGraphModel>
  </diagram>
</mxfile>
